<?xml version="1.0" encoding="UTF-8"?>
<svg width="2211px" height="1675px" viewBox="0 0 2211 1675" version="1.1" xmlns="http://www.w3.org/2000/svg" xmlns:xlink="http://www.w3.org/1999/xlink">
    <title>picard alt</title>
    <defs>
        <linearGradient x1="100%" y1="50%" x2="7.37082741%" y2="50%" id="linearGradient-1">
            <stop stop-color="#D8D8D8" offset="0%"></stop>
            <stop stop-color="#979797" stop-opacity="0" offset="100%"></stop>
        </linearGradient>
        <linearGradient x1="100%" y1="50%" x2="0%" y2="50%" id="linearGradient-2">
            <stop stop-color="#D8D8D8" offset="0%"></stop>
            <stop stop-color="#979797" stop-opacity="0" offset="92.6291726%"></stop>
        </linearGradient>
        <linearGradient x1="100%" y1="50%" x2="7.37082741%" y2="50%" id="linearGradient-3">
            <stop stop-color="#D8D8D8" offset="0%"></stop>
            <stop stop-color="#979797" stop-opacity="0" offset="100%"></stop>
        </linearGradient>
        <linearGradient x1="100%" y1="50%" x2="7.37082741%" y2="50%" id="linearGradient-4">
            <stop stop-color="#D8D8D8" offset="0%"></stop>
            <stop stop-color="#979797" stop-opacity="0" offset="100%"></stop>
        </linearGradient>
        <linearGradient x1="100%" y1="50%" x2="7.37082741%" y2="50%" id="linearGradient-5">
            <stop stop-color="#D8D8D8" offset="0%"></stop>
            <stop stop-color="#979797" stop-opacity="0" offset="100%"></stop>
        </linearGradient>
        <linearGradient x1="100%" y1="50%" x2="7.37082741%" y2="50%" id="linearGradient-6">
            <stop stop-color="#D8D8D8" offset="0%"></stop>
            <stop stop-color="#979797" stop-opacity="0" offset="100%"></stop>
        </linearGradient>
    </defs>
    <g id="Page-1" stroke="none" stroke-width="1" fill="none" fill-rule="evenodd">
        <g id="Group" transform="translate(514.999023, 1219.999023)">
            <path d="M89.5956017,0.000601717798 L0.000601717798,89.5956017 L0.000601717798,78.9886017 L78.9896017,0.000601717798 L89.5956017,0.000601717798 Z" id="Combined-Shape" fill="#D8D8D8"></path>
            <path d="M68.383,5.68434189e-14 L2.84217094e-14,68.383 L2.84217094e-14,57.776 L57.776,5.68434189e-14 L68.383,5.68434189e-14 Z" id="Combined-Shape" fill="#D8D8D8"></path>
            <path d="M47.0839445,0.0846516865 L0.0846516865,47.0839445 C0.348221145,42.5022445 1.22870227,38.0858916 2.64429106,33.9166896 L33.9166896,2.64429106 C38.0858916,1.22870227 42.5022445,0.348221145 47.0839445,0.0846516865 Z" id="Combined-Shape" fill="#D8D8D8"></path>
            <path d="M110.809203,0.000203435596 L0.000203435596,110.809203 L0.000203435596,100.203203 L100.203203,0.000203435596 L110.809203,0.000203435596 Z" id="Combined-Shape" fill="#D8D8D8"></path>
            <path d="M130.000977,0.000977055322 C130.664729,0.000977055322 131.32546,0.0139105961 131.982932,0.0395394089 L0.0395394089,131.982932 C0.0139105961,131.32546 0.000977055322,130.664729 0.000977055322,130.000977 L0.000805153395,121.414805 L121.414805,0.000805153395 L130.000977,0.000977055322 Z" id="Combined-Shape" fill="#D8D8D8"></path>
            <path d="M149.353498,3.88396583 L3.88396583,149.353498 C2.80414878,146.783373 1.9329133,144.104005 1.29144446,141.336579 L141.336579,1.29144446 C144.104005,1.9329133 146.783373,2.80414878 149.353498,3.88396583 Z" id="Combined-Shape" fill="#D8D8D8"></path>
            <path d="M162.471737,11.9780355 L11.9780355,162.471737 C10.3355853,160.550273 8.83623758,158.50282 7.49649679,156.345881 L156.345881,7.49649679 C158.50282,8.83623758 160.550273,10.3355853 162.471737,11.9780355 Z" id="Combined-Shape" fill="#D8D8D8"></path>
            <path d="M172.313289,23.3491727 L23.3491727,172.313289 C21.2046427,170.959647 19.1701811,169.447472 17.2622471,167.793225 L167.793225,17.2622471 C169.447472,19.1701811 170.959647,21.2046427 172.313289,23.3491727 Z" id="Combined-Shape" fill="#D8D8D8"></path>
            <path d="M178.614972,38.2609063 L38.2609063,178.614972 C35.5120914,177.953529 32.8517254,177.065004 30.3007645,175.970351 L175.970351,30.3007645 C177.065004,32.8517254 177.953529,35.5120914 178.614972,38.2609063 Z" id="Combined-Shape" fill="#D8D8D8"></path>
            <path d="M180.000977,50.0009771 L180.000271,58.0872706 L58.0872706,180.000271 L50.0009771,180.000977 C49.1759216,180.000977 48.3555336,179.980994 47.5402706,179.941484 L179.941484,47.5402706 C179.980994,48.3555336 180.000977,49.1759216 180.000977,50.0009771 Z" id="Combined-Shape" fill="#D8D8D8"></path>
            <path d="M180.000415,68.6954155 L180.000415,79.3014155 L79.3014155,180.000415 L68.6944155,180.000415 L180.000415,68.6954155 Z" id="Combined-Shape" fill="#D8D8D8"></path>
            <path d="M180.000017,89.9090172 L180.000017,100.515017 L100.515017,180.000017 L89.9080172,180.000017 L180.000017,89.9090172 Z" id="Combined-Shape" fill="#D8D8D8"></path>
            <path d="M180.000619,111.120619 L180.000619,121.727619 L121.727619,180.000619 L111.120619,180.000619 L180.000619,111.120619 Z" id="Combined-Shape" fill="#D8D8D8"></path>
            <path d="M177.604583,145.338648 L145.338648,177.604583 C141.229533,178.927503 136.888319,179.733151 132.391706,179.944827 L179.944827,132.391706 C179.733151,136.888319 178.927503,141.229533 177.604583,145.338648 Z" id="Combined-Shape" fill="#D8D8D8"></path>
            <path d="M130.000977,0.000977055322 C157.615215,0.000977055322 180.000977,22.3867396 180.000977,50.0009771 L180.000977,130.000977 C180.000977,157.615215 157.615215,180.000977 130.000977,180.000977 L50.0009771,180.000977 C22.3867396,180.000977 0.000977055322,157.615215 0.000977055322,130.000977 L0.000977055322,50.0009771 C0.000977055322,22.3867396 22.3867396,0.000977055322 50.0009771,0.000977055322 L130.000977,0.000977055322 Z M130.000977,15.0009771 L50.0009771,15.0009771 C30.8643105,15.0009771 15.3147437,30.3591771 15.0056661,49.4221881 L15.0009771,50.0009771 L15.0009771,130.000977 C15.0009771,149.137644 30.3591771,164.68721 49.4221881,164.996288 L50.0009771,165.000977 L130.000977,165.000977 C149.137644,165.000977 164.68721,149.642777 164.996288,130.579766 L165.000977,130.000977 L165.000977,50.0009771 C165.000977,30.8643105 149.642777,15.3147437 130.579766,15.0056661 L130.000977,15.0009771 Z" id="Rectangle" fill="#979797" fill-rule="nonzero"></path>
        </g>
        <g id="Group" transform="translate(1014.999023, 1479.999023)">
            <path d="M89.5956017,0.000601717798 L0.000601717798,89.5956017 L0.000601717798,78.9886017 L78.9896017,0.000601717798 L89.5956017,0.000601717798 Z" id="Combined-Shape" fill="#D8D8D8"></path>
            <path d="M68.383,5.68434189e-14 L2.84217094e-14,68.383 L2.84217094e-14,57.776 L57.776,5.68434189e-14 L68.383,5.68434189e-14 Z" id="Combined-Shape" fill="#D8D8D8"></path>
            <path d="M47.0839445,0.0846516865 L0.0846516865,47.0839445 C0.348221145,42.5022445 1.22870227,38.0858916 2.64429106,33.9166896 L33.9166896,2.64429106 C38.0858916,1.22870227 42.5022445,0.348221145 47.0839445,0.0846516865 Z" id="Combined-Shape" fill="#D8D8D8"></path>
            <path d="M110.809203,0.000203435596 L0.000203435596,110.809203 L0.000203435596,100.203203 L100.203203,0.000203435596 L110.809203,0.000203435596 Z" id="Combined-Shape" fill="#D8D8D8"></path>
            <path d="M130.000977,0.000977055322 C130.664729,0.000977055322 131.32546,0.0139105961 131.982932,0.0395394089 L0.0395394089,131.982932 C0.0139105961,131.32546 0.000977055322,130.664729 0.000977055322,130.000977 L0.000805153395,121.414805 L121.414805,0.000805153395 L130.000977,0.000977055322 Z" id="Combined-Shape" fill="#D8D8D8"></path>
            <path d="M149.353498,3.88396583 L3.88396583,149.353498 C2.80414878,146.783373 1.9329133,144.104005 1.29144446,141.336579 L141.336579,1.29144446 C144.104005,1.9329133 146.783373,2.80414878 149.353498,3.88396583 Z" id="Combined-Shape" fill="#D8D8D8"></path>
            <path d="M162.471737,11.9780355 L11.9780355,162.471737 C10.3355853,160.550273 8.83623758,158.50282 7.49649679,156.345881 L156.345881,7.49649679 C158.50282,8.83623758 160.550273,10.3355853 162.471737,11.9780355 Z" id="Combined-Shape" fill="#D8D8D8"></path>
            <path d="M172.313289,23.3491727 L23.3491727,172.313289 C21.2046427,170.959647 19.1701811,169.447472 17.2622471,167.793225 L167.793225,17.2622471 C169.447472,19.1701811 170.959647,21.2046427 172.313289,23.3491727 Z" id="Combined-Shape" fill="#D8D8D8"></path>
            <path d="M178.614972,38.2609063 L38.2609063,178.614972 C35.5120914,177.953529 32.8517254,177.065004 30.3007645,175.970351 L175.970351,30.3007645 C177.065004,32.8517254 177.953529,35.5120914 178.614972,38.2609063 Z" id="Combined-Shape" fill="#D8D8D8"></path>
            <path d="M180.000977,50.0009771 L180.000271,58.0872706 L58.0872706,180.000271 L50.0009771,180.000977 C49.1759216,180.000977 48.3555336,179.980994 47.5402706,179.941484 L179.941484,47.5402706 C179.980994,48.3555336 180.000977,49.1759216 180.000977,50.0009771 Z" id="Combined-Shape" fill="#D8D8D8"></path>
            <path d="M180.000415,68.6954155 L180.000415,79.3014155 L79.3014155,180.000415 L68.6944155,180.000415 L180.000415,68.6954155 Z" id="Combined-Shape" fill="#D8D8D8"></path>
            <path d="M180.000017,89.9090172 L180.000017,100.515017 L100.515017,180.000017 L89.9080172,180.000017 L180.000017,89.9090172 Z" id="Combined-Shape" fill="#D8D8D8"></path>
            <path d="M180.000619,111.120619 L180.000619,121.727619 L121.727619,180.000619 L111.120619,180.000619 L180.000619,111.120619 Z" id="Combined-Shape" fill="#D8D8D8"></path>
            <path d="M177.604583,145.338648 L145.338648,177.604583 C141.229533,178.927503 136.888319,179.733151 132.391706,179.944827 L179.944827,132.391706 C179.733151,136.888319 178.927503,141.229533 177.604583,145.338648 Z" id="Combined-Shape" fill="#D8D8D8"></path>
            <path d="M130.000977,0.000977055322 C157.615215,0.000977055322 180.000977,22.3867396 180.000977,50.0009771 L180.000977,130.000977 C180.000977,157.615215 157.615215,180.000977 130.000977,180.000977 L50.0009771,180.000977 C22.3867396,180.000977 0.000977055322,157.615215 0.000977055322,130.000977 L0.000977055322,50.0009771 C0.000977055322,22.3867396 22.3867396,0.000977055322 50.0009771,0.000977055322 L130.000977,0.000977055322 Z M130.000977,15.0009771 L50.0009771,15.0009771 C30.8643105,15.0009771 15.3147437,30.3591771 15.0056661,49.4221881 L15.0009771,50.0009771 L15.0009771,130.000977 C15.0009771,149.137644 30.3591771,164.68721 49.4221881,164.996288 L50.0009771,165.000977 L130.000977,165.000977 C149.137644,165.000977 164.68721,149.642777 164.996288,130.579766 L165.000977,130.000977 L165.000977,50.0009771 C165.000977,30.8643105 149.642777,15.3147437 130.579766,15.0056661 L130.000977,15.0009771 Z" id="Rectangle" fill="#979797" fill-rule="nonzero"></path>
        </g>
        <path d="M1104.59462,1269.99962 L1014.99962,1359.59462 L1014.99962,1348.98762 L1093.98862,1269.99962 L1104.59462,1269.99962 Z" id="Combined-Shape" fill="#26B326"></path>
        <path d="M1083.38202,1269.99902 L1014.99902,1338.38202 L1014.99902,1327.77502 L1072.77502,1269.99902 L1083.38202,1269.99902 Z" id="Combined-Shape" fill="#26B326"></path>
        <path d="M1062.08297,1270.08367 L1015.08367,1317.08297 C1015.34724,1312.50127 1016.22773,1308.08491 1017.64331,1303.91571 L1048.91571,1272.64331 C1053.08491,1271.22773 1057.50127,1270.34724 1062.08297,1270.08367 Z" id="Combined-Shape" fill="#26B326"></path>
        <path d="M1125.80823,1269.99923 L1014.99923,1380.80823 L1014.99923,1370.20223 L1115.20223,1269.99923 L1125.80823,1269.99923 Z" id="Combined-Shape" fill="#26B326"></path>
        <path d="M1145,1270 C1145.66375,1270 1146.32448,1270.01293 1146.98196,1270.03856 L1015.03856,1401.98196 C1015.01293,1401.32448 1015,1400.66375 1015,1400 L1014.99983,1391.41383 L1136.41383,1269.99983 L1145,1270 Z" id="Combined-Shape" fill="#26B326"></path>
        <path d="M1164.35252,1273.88299 L1018.88299,1419.35252 C1017.80317,1416.7824 1016.93194,1414.10303 1016.29047,1411.3356 L1156.3356,1271.29047 C1159.10303,1271.93194 1161.7824,1272.80317 1164.35252,1273.88299 Z" id="Combined-Shape" fill="#26B326"></path>
        <path d="M1177.47076,1281.97706 L1026.97706,1432.47076 C1025.33461,1430.5493 1023.83526,1428.50184 1022.49552,1426.3449 L1171.3449,1277.49552 C1173.50184,1278.83526 1175.5493,1280.33461 1177.47076,1281.97706 Z" id="Combined-Shape" fill="#26B326"></path>
        <path d="M1187.31231,1293.3482 L1038.3482,1442.31231 C1036.20367,1440.95867 1034.1692,1439.4465 1032.26127,1437.79225 L1182.79225,1287.26127 C1184.4465,1289.1692 1185.95867,1291.20367 1187.31231,1293.3482 Z" id="Combined-Shape" fill="#26B326"></path>
        <path d="M1193.61399,1308.25993 L1053.25993,1448.61399 C1050.51111,1447.95255 1047.85075,1447.06403 1045.29979,1445.96937 L1190.96937,1300.29979 C1192.06403,1302.85075 1192.95255,1305.51111 1193.61399,1308.25993 Z" id="Combined-Shape" fill="#26B326"></path>
        <path d="M1195,1320 L1194.99929,1328.08629 L1073.08629,1449.99929 L1065,1450 C1064.17494,1450 1063.35456,1449.98002 1062.53929,1449.94051 L1194.94051,1317.53929 C1194.98002,1318.35456 1195,1319.17494 1195,1320 Z" id="Combined-Shape" fill="#26B326"></path>
        <path d="M1194.99944,1338.69444 L1194.99944,1349.30044 L1094.30044,1449.99944 L1083.69344,1449.99944 L1194.99944,1338.69444 Z" id="Combined-Shape" fill="#26B326"></path>
        <path d="M1194.99904,1359.90804 L1194.99904,1370.51404 L1115.51404,1449.99904 L1104.90704,1449.99904 L1194.99904,1359.90804 Z" id="Combined-Shape" fill="#26B326"></path>
        <path d="M1194.99964,1381.11964 L1194.99964,1391.72664 L1136.72664,1449.99964 L1126.11964,1449.99964 L1194.99964,1381.11964 Z" id="Combined-Shape" fill="#26B326"></path>
        <path d="M1192.60361,1415.33767 L1160.33767,1447.60361 C1156.22856,1448.92653 1151.88734,1449.73217 1147.39073,1449.94385 L1194.94385,1402.39073 C1194.73217,1406.88734 1193.92653,1411.22856 1192.60361,1415.33767 Z" id="Combined-Shape" fill="#26B326"></path>
        <path d="M1145,1270 C1172.61424,1270 1195,1292.38576 1195,1320 L1195,1400 C1195,1427.61424 1172.61424,1450 1145,1450 L1065,1450 C1037.38576,1450 1015,1427.61424 1015,1400 L1015,1320 C1015,1292.38576 1037.38576,1270 1065,1270 L1145,1270 Z M1145,1285 L1065,1285 C1045.86333,1285 1030.31377,1300.3582 1030.00469,1319.42121 L1030,1320 L1030,1400 C1030,1419.13667 1045.3582,1434.68623 1064.42121,1434.99531 L1065,1435 L1145,1435 C1164.13667,1435 1179.68623,1419.6418 1179.99531,1400.57879 L1180,1400 L1180,1320 C1180,1300.86333 1164.6418,1285.31377 1145.57879,1285.00469 L1145,1285 Z" id="Rectangle" fill="#26B326" fill-rule="nonzero"></path>
        <g id="Group" transform="translate(1014.999023, 749.999023)">
            <path d="M89.5956017,0.000601717798 L0.000601717798,89.5956017 L0.000601717798,78.9886017 L78.9896017,0.000601717798 L89.5956017,0.000601717798 Z" id="Combined-Shape" fill="#D8D8D8"></path>
            <path d="M68.383,5.68434189e-14 L2.84217094e-14,68.383 L2.84217094e-14,57.776 L57.776,5.68434189e-14 L68.383,5.68434189e-14 Z" id="Combined-Shape" fill="#D8D8D8"></path>
            <path d="M47.0839445,0.0846516865 L0.0846516865,47.0839445 C0.348221145,42.5022445 1.22870227,38.0858916 2.64429106,33.9166896 L33.9166896,2.64429106 C38.0858916,1.22870227 42.5022445,0.348221145 47.0839445,0.0846516865 Z" id="Combined-Shape" fill="#D8D8D8"></path>
            <path d="M110.809203,0.000203435596 L0.000203435596,110.809203 L0.000203435596,100.203203 L100.203203,0.000203435596 L110.809203,0.000203435596 Z" id="Combined-Shape" fill="#D8D8D8"></path>
            <path d="M130.000977,0.000977055322 C130.664729,0.000977055322 131.32546,0.0139105961 131.982932,0.0395394089 L0.0395394089,131.982932 C0.0139105961,131.32546 0.000977055322,130.664729 0.000977055322,130.000977 L0.000805153395,121.414805 L121.414805,0.000805153395 L130.000977,0.000977055322 Z" id="Combined-Shape" fill="#D8D8D8"></path>
            <path d="M149.353498,3.88396583 L3.88396583,149.353498 C2.80414878,146.783373 1.9329133,144.104005 1.29144446,141.336579 L141.336579,1.29144446 C144.104005,1.9329133 146.783373,2.80414878 149.353498,3.88396583 Z" id="Combined-Shape" fill="#D8D8D8"></path>
            <path d="M162.471737,11.9780355 L11.9780355,162.471737 C10.3355853,160.550273 8.83623758,158.50282 7.49649679,156.345881 L156.345881,7.49649679 C158.50282,8.83623758 160.550273,10.3355853 162.471737,11.9780355 Z" id="Combined-Shape" fill="#D8D8D8"></path>
            <path d="M172.313289,23.3491727 L23.3491727,172.313289 C21.2046427,170.959647 19.1701811,169.447472 17.2622471,167.793225 L167.793225,17.2622471 C169.447472,19.1701811 170.959647,21.2046427 172.313289,23.3491727 Z" id="Combined-Shape" fill="#D8D8D8"></path>
            <path d="M178.614972,38.2609063 L38.2609063,178.614972 C35.5120914,177.953529 32.8517254,177.065004 30.3007645,175.970351 L175.970351,30.3007645 C177.065004,32.8517254 177.953529,35.5120914 178.614972,38.2609063 Z" id="Combined-Shape" fill="#D8D8D8"></path>
            <path d="M180.000977,50.0009771 L180.000271,58.0872706 L58.0872706,180.000271 L50.0009771,180.000977 C49.1759216,180.000977 48.3555336,179.980994 47.5402706,179.941484 L179.941484,47.5402706 C179.980994,48.3555336 180.000977,49.1759216 180.000977,50.0009771 Z" id="Combined-Shape" fill="#D8D8D8"></path>
            <path d="M180.000415,68.6954155 L180.000415,79.3014155 L79.3014155,180.000415 L68.6944155,180.000415 L180.000415,68.6954155 Z" id="Combined-Shape" fill="#D8D8D8"></path>
            <path d="M180.000017,89.9090172 L180.000017,100.515017 L100.515017,180.000017 L89.9080172,180.000017 L180.000017,89.9090172 Z" id="Combined-Shape" fill="#D8D8D8"></path>
            <path d="M180.000619,111.120619 L180.000619,121.727619 L121.727619,180.000619 L111.120619,180.000619 L180.000619,111.120619 Z" id="Combined-Shape" fill="#D8D8D8"></path>
            <path d="M177.604583,145.338648 L145.338648,177.604583 C141.229533,178.927503 136.888319,179.733151 132.391706,179.944827 L179.944827,132.391706 C179.733151,136.888319 178.927503,141.229533 177.604583,145.338648 Z" id="Combined-Shape" fill="#D8D8D8"></path>
            <path d="M130.000977,0.000977055322 C157.615215,0.000977055322 180.000977,22.3867396 180.000977,50.0009771 L180.000977,130.000977 C180.000977,157.615215 157.615215,180.000977 130.000977,180.000977 L50.0009771,180.000977 C22.3867396,180.000977 0.000977055322,157.615215 0.000977055322,130.000977 L0.000977055322,50.0009771 C0.000977055322,22.3867396 22.3867396,0.000977055322 50.0009771,0.000977055322 L130.000977,0.000977055322 Z M130.000977,15.0009771 L50.0009771,15.0009771 C30.8643105,15.0009771 15.3147437,30.3591771 15.0056661,49.4221881 L15.0009771,50.0009771 L15.0009771,130.000977 C15.0009771,149.137644 30.3591771,164.68721 49.4221881,164.996288 L50.0009771,165.000977 L130.000977,165.000977 C149.137644,165.000977 164.68721,149.642777 164.996288,130.579766 L165.000977,130.000977 L165.000977,50.0009771 C165.000977,30.8643105 149.642777,15.3147437 130.579766,15.0056661 L130.000977,15.0009771 Z" id="Rectangle" fill="#979797" fill-rule="nonzero"></path>
        </g>
        <g id="Group" transform="translate(1514.999023, 644.999023)">
            <path d="M89.5956017,0.000601717798 L0.000601717798,89.5956017 L0.000601717798,78.9886017 L78.9896017,0.000601717798 L89.5956017,0.000601717798 Z" id="Combined-Shape" fill="#D8D8D8"></path>
            <path d="M68.383,5.68434189e-14 L2.84217094e-14,68.383 L2.84217094e-14,57.776 L57.776,5.68434189e-14 L68.383,5.68434189e-14 Z" id="Combined-Shape" fill="#D8D8D8"></path>
            <path d="M47.0839445,0.0846516865 L0.0846516865,47.0839445 C0.348221145,42.5022445 1.22870227,38.0858916 2.64429106,33.9166896 L33.9166896,2.64429106 C38.0858916,1.22870227 42.5022445,0.348221145 47.0839445,0.0846516865 Z" id="Combined-Shape" fill="#D8D8D8"></path>
            <path d="M110.809203,0.000203435596 L0.000203435596,110.809203 L0.000203435596,100.203203 L100.203203,0.000203435596 L110.809203,0.000203435596 Z" id="Combined-Shape" fill="#D8D8D8"></path>
            <path d="M130.000977,0.000977055322 C130.664729,0.000977055322 131.32546,0.0139105961 131.982932,0.0395394089 L0.0395394089,131.982932 C0.0139105961,131.32546 0.000977055322,130.664729 0.000977055322,130.000977 L0.000805153395,121.414805 L121.414805,0.000805153395 L130.000977,0.000977055322 Z" id="Combined-Shape" fill="#D8D8D8"></path>
            <path d="M149.353498,3.88396583 L3.88396583,149.353498 C2.80414878,146.783373 1.9329133,144.104005 1.29144446,141.336579 L141.336579,1.29144446 C144.104005,1.9329133 146.783373,2.80414878 149.353498,3.88396583 Z" id="Combined-Shape" fill="#D8D8D8"></path>
            <path d="M162.471737,11.9780355 L11.9780355,162.471737 C10.3355853,160.550273 8.83623758,158.50282 7.49649679,156.345881 L156.345881,7.49649679 C158.50282,8.83623758 160.550273,10.3355853 162.471737,11.9780355 Z" id="Combined-Shape" fill="#D8D8D8"></path>
            <path d="M172.313289,23.3491727 L23.3491727,172.313289 C21.2046427,170.959647 19.1701811,169.447472 17.2622471,167.793225 L167.793225,17.2622471 C169.447472,19.1701811 170.959647,21.2046427 172.313289,23.3491727 Z" id="Combined-Shape" fill="#D8D8D8"></path>
            <path d="M178.614972,38.2609063 L38.2609063,178.614972 C35.5120914,177.953529 32.8517254,177.065004 30.3007645,175.970351 L175.970351,30.3007645 C177.065004,32.8517254 177.953529,35.5120914 178.614972,38.2609063 Z" id="Combined-Shape" fill="#D8D8D8"></path>
            <path d="M180.000977,50.0009771 L180.000271,58.0872706 L58.0872706,180.000271 L50.0009771,180.000977 C49.1759216,180.000977 48.3555336,179.980994 47.5402706,179.941484 L179.941484,47.5402706 C179.980994,48.3555336 180.000977,49.1759216 180.000977,50.0009771 Z" id="Combined-Shape" fill="#D8D8D8"></path>
            <path d="M180.000415,68.6954155 L180.000415,79.3014155 L79.3014155,180.000415 L68.6944155,180.000415 L180.000415,68.6954155 Z" id="Combined-Shape" fill="#D8D8D8"></path>
            <path d="M180.000017,89.9090172 L180.000017,100.515017 L100.515017,180.000017 L89.9080172,180.000017 L180.000017,89.9090172 Z" id="Combined-Shape" fill="#D8D8D8"></path>
            <path d="M180.000619,111.120619 L180.000619,121.727619 L121.727619,180.000619 L111.120619,180.000619 L180.000619,111.120619 Z" id="Combined-Shape" fill="#D8D8D8"></path>
            <path d="M177.604583,145.338648 L145.338648,177.604583 C141.229533,178.927503 136.888319,179.733151 132.391706,179.944827 L179.944827,132.391706 C179.733151,136.888319 178.927503,141.229533 177.604583,145.338648 Z" id="Combined-Shape" fill="#D8D8D8"></path>
            <path d="M130.000977,0.000977055322 C157.615215,0.000977055322 180.000977,22.3867396 180.000977,50.0009771 L180.000977,130.000977 C180.000977,157.615215 157.615215,180.000977 130.000977,180.000977 L50.0009771,180.000977 C22.3867396,180.000977 0.000977055322,157.615215 0.000977055322,130.000977 L0.000977055322,50.0009771 C0.000977055322,22.3867396 22.3867396,0.000977055322 50.0009771,0.000977055322 L130.000977,0.000977055322 Z M130.000977,15.0009771 L50.0009771,15.0009771 C30.8643105,15.0009771 15.3147437,30.3591771 15.0056661,49.4221881 L15.0009771,50.0009771 L15.0009771,130.000977 C15.0009771,149.137644 30.3591771,164.68721 49.4221881,164.996288 L50.0009771,165.000977 L130.000977,165.000977 C149.137644,165.000977 164.68721,149.642777 164.996288,130.579766 L165.000977,130.000977 L165.000977,50.0009771 C165.000977,30.8643105 149.642777,15.3147437 130.579766,15.0056661 L130.000977,15.0009771 Z" id="Rectangle" fill="#979797" fill-rule="nonzero"></path>
        </g>
        <g id="Group" transform="translate(2014.999023, 434.999023)">
            <path d="M89.5956017,0.000601717798 L0.000601717798,89.5956017 L0.000601717798,78.9886017 L78.9896017,0.000601717798 L89.5956017,0.000601717798 Z" id="Combined-Shape" fill="#D8D8D8"></path>
            <path d="M68.383,5.68434189e-14 L2.84217094e-14,68.383 L2.84217094e-14,57.776 L57.776,5.68434189e-14 L68.383,5.68434189e-14 Z" id="Combined-Shape" fill="#D8D8D8"></path>
            <path d="M47.0839445,0.0846516865 L0.0846516865,47.0839445 C0.348221145,42.5022445 1.22870227,38.0858916 2.64429106,33.9166896 L33.9166896,2.64429106 C38.0858916,1.22870227 42.5022445,0.348221145 47.0839445,0.0846516865 Z" id="Combined-Shape" fill="#D8D8D8"></path>
            <path d="M110.809203,0.000203435596 L0.000203435596,110.809203 L0.000203435596,100.203203 L100.203203,0.000203435596 L110.809203,0.000203435596 Z" id="Combined-Shape" fill="#D8D8D8"></path>
            <path d="M130.000977,0.000977055322 C130.664729,0.000977055322 131.32546,0.0139105961 131.982932,0.0395394089 L0.0395394089,131.982932 C0.0139105961,131.32546 0.000977055322,130.664729 0.000977055322,130.000977 L0.000805153395,121.414805 L121.414805,0.000805153395 L130.000977,0.000977055322 Z" id="Combined-Shape" fill="#D8D8D8"></path>
            <path d="M149.353498,3.88396583 L3.88396583,149.353498 C2.80414878,146.783373 1.9329133,144.104005 1.29144446,141.336579 L141.336579,1.29144446 C144.104005,1.9329133 146.783373,2.80414878 149.353498,3.88396583 Z" id="Combined-Shape" fill="#D8D8D8"></path>
            <path d="M162.471737,11.9780355 L11.9780355,162.471737 C10.3355853,160.550273 8.83623758,158.50282 7.49649679,156.345881 L156.345881,7.49649679 C158.50282,8.83623758 160.550273,10.3355853 162.471737,11.9780355 Z" id="Combined-Shape" fill="#D8D8D8"></path>
            <path d="M172.313289,23.3491727 L23.3491727,172.313289 C21.2046427,170.959647 19.1701811,169.447472 17.2622471,167.793225 L167.793225,17.2622471 C169.447472,19.1701811 170.959647,21.2046427 172.313289,23.3491727 Z" id="Combined-Shape" fill="#D8D8D8"></path>
            <path d="M178.614972,38.2609063 L38.2609063,178.614972 C35.5120914,177.953529 32.8517254,177.065004 30.3007645,175.970351 L175.970351,30.3007645 C177.065004,32.8517254 177.953529,35.5120914 178.614972,38.2609063 Z" id="Combined-Shape" fill="#D8D8D8"></path>
            <path d="M180.000977,50.0009771 L180.000271,58.0872706 L58.0872706,180.000271 L50.0009771,180.000977 C49.1759216,180.000977 48.3555336,179.980994 47.5402706,179.941484 L179.941484,47.5402706 C179.980994,48.3555336 180.000977,49.1759216 180.000977,50.0009771 Z" id="Combined-Shape" fill="#D8D8D8"></path>
            <path d="M180.000415,68.6954155 L180.000415,79.3014155 L79.3014155,180.000415 L68.6944155,180.000415 L180.000415,68.6954155 Z" id="Combined-Shape" fill="#D8D8D8"></path>
            <path d="M180.000017,89.9090172 L180.000017,100.515017 L100.515017,180.000017 L89.9080172,180.000017 L180.000017,89.9090172 Z" id="Combined-Shape" fill="#D8D8D8"></path>
            <path d="M180.000619,111.120619 L180.000619,121.727619 L121.727619,180.000619 L111.120619,180.000619 L180.000619,111.120619 Z" id="Combined-Shape" fill="#D8D8D8"></path>
            <path d="M177.604583,145.338648 L145.338648,177.604583 C141.229533,178.927503 136.888319,179.733151 132.391706,179.944827 L179.944827,132.391706 C179.733151,136.888319 178.927503,141.229533 177.604583,145.338648 Z" id="Combined-Shape" fill="#D8D8D8"></path>
            <path d="M130.000977,0.000977055322 C157.615215,0.000977055322 180.000977,22.3867396 180.000977,50.0009771 L180.000977,130.000977 C180.000977,157.615215 157.615215,180.000977 130.000977,180.000977 L50.0009771,180.000977 C22.3867396,180.000977 0.000977055322,157.615215 0.000977055322,130.000977 L0.000977055322,50.0009771 C0.000977055322,22.3867396 22.3867396,0.000977055322 50.0009771,0.000977055322 L130.000977,0.000977055322 Z M130.000977,15.0009771 L50.0009771,15.0009771 C30.8643105,15.0009771 15.3147437,30.3591771 15.0056661,49.4221881 L15.0009771,50.0009771 L15.0009771,130.000977 C15.0009771,149.137644 30.3591771,164.68721 49.4221881,164.996288 L50.0009771,165.000977 L130.000977,165.000977 C149.137644,165.000977 164.68721,149.642777 164.996288,130.579766 L165.000977,130.000977 L165.000977,50.0009771 C165.000977,30.8643105 149.642777,15.3147437 130.579766,15.0056661 L130.000977,15.0009771 Z" id="Rectangle" fill="#979797" fill-rule="nonzero"></path>
        </g>
        <g id="Group" transform="translate(1514.999023, 1374.999023)">
            <path d="M89.5956017,0.000601717798 L0.000601717798,89.5956017 L0.000601717798,78.9886017 L78.9896017,0.000601717798 L89.5956017,0.000601717798 Z" id="Combined-Shape" fill="#D8D8D8"></path>
            <path d="M68.383,5.68434189e-14 L2.84217094e-14,68.383 L2.84217094e-14,57.776 L57.776,5.68434189e-14 L68.383,5.68434189e-14 Z" id="Combined-Shape" fill="#D8D8D8"></path>
            <path d="M47.0839445,0.0846516865 L0.0846516865,47.0839445 C0.348221145,42.5022445 1.22870227,38.0858916 2.64429106,33.9166896 L33.9166896,2.64429106 C38.0858916,1.22870227 42.5022445,0.348221145 47.0839445,0.0846516865 Z" id="Combined-Shape" fill="#D8D8D8"></path>
            <path d="M110.809203,0.000203435596 L0.000203435596,110.809203 L0.000203435596,100.203203 L100.203203,0.000203435596 L110.809203,0.000203435596 Z" id="Combined-Shape" fill="#D8D8D8"></path>
            <path d="M130.000977,0.000977055322 C130.664729,0.000977055322 131.32546,0.0139105961 131.982932,0.0395394089 L0.0395394089,131.982932 C0.0139105961,131.32546 0.000977055322,130.664729 0.000977055322,130.000977 L0.000805153395,121.414805 L121.414805,0.000805153395 L130.000977,0.000977055322 Z" id="Combined-Shape" fill="#D8D8D8"></path>
            <path d="M149.353498,3.88396583 L3.88396583,149.353498 C2.80414878,146.783373 1.9329133,144.104005 1.29144446,141.336579 L141.336579,1.29144446 C144.104005,1.9329133 146.783373,2.80414878 149.353498,3.88396583 Z" id="Combined-Shape" fill="#D8D8D8"></path>
            <path d="M162.471737,11.9780355 L11.9780355,162.471737 C10.3355853,160.550273 8.83623758,158.50282 7.49649679,156.345881 L156.345881,7.49649679 C158.50282,8.83623758 160.550273,10.3355853 162.471737,11.9780355 Z" id="Combined-Shape" fill="#D8D8D8"></path>
            <path d="M172.313289,23.3491727 L23.3491727,172.313289 C21.2046427,170.959647 19.1701811,169.447472 17.2622471,167.793225 L167.793225,17.2622471 C169.447472,19.1701811 170.959647,21.2046427 172.313289,23.3491727 Z" id="Combined-Shape" fill="#D8D8D8"></path>
            <path d="M178.614972,38.2609063 L38.2609063,178.614972 C35.5120914,177.953529 32.8517254,177.065004 30.3007645,175.970351 L175.970351,30.3007645 C177.065004,32.8517254 177.953529,35.5120914 178.614972,38.2609063 Z" id="Combined-Shape" fill="#D8D8D8"></path>
            <path d="M180.000977,50.0009771 L180.000271,58.0872706 L58.0872706,180.000271 L50.0009771,180.000977 C49.1759216,180.000977 48.3555336,179.980994 47.5402706,179.941484 L179.941484,47.5402706 C179.980994,48.3555336 180.000977,49.1759216 180.000977,50.0009771 Z" id="Combined-Shape" fill="#D8D8D8"></path>
            <path d="M180.000415,68.6954155 L180.000415,79.3014155 L79.3014155,180.000415 L68.6944155,180.000415 L180.000415,68.6954155 Z" id="Combined-Shape" fill="#D8D8D8"></path>
            <path d="M180.000017,89.9090172 L180.000017,100.515017 L100.515017,180.000017 L89.9080172,180.000017 L180.000017,89.9090172 Z" id="Combined-Shape" fill="#D8D8D8"></path>
            <path d="M180.000619,111.120619 L180.000619,121.727619 L121.727619,180.000619 L111.120619,180.000619 L180.000619,111.120619 Z" id="Combined-Shape" fill="#D8D8D8"></path>
            <path d="M177.604583,145.338648 L145.338648,177.604583 C141.229533,178.927503 136.888319,179.733151 132.391706,179.944827 L179.944827,132.391706 C179.733151,136.888319 178.927503,141.229533 177.604583,145.338648 Z" id="Combined-Shape" fill="#D8D8D8"></path>
            <path d="M130.000977,0.000977055322 C157.615215,0.000977055322 180.000977,22.3867396 180.000977,50.0009771 L180.000977,130.000977 C180.000977,157.615215 157.615215,180.000977 130.000977,180.000977 L50.0009771,180.000977 C22.3867396,180.000977 0.000977055322,157.615215 0.000977055322,130.000977 L0.000977055322,50.0009771 C0.000977055322,22.3867396 22.3867396,0.000977055322 50.0009771,0.000977055322 L130.000977,0.000977055322 Z M130.000977,15.0009771 L50.0009771,15.0009771 C30.8643105,15.0009771 15.3147437,30.3591771 15.0056661,49.4221881 L15.0009771,50.0009771 L15.0009771,130.000977 C15.0009771,149.137644 30.3591771,164.68721 49.4221881,164.996288 L50.0009771,165.000977 L130.000977,165.000977 C149.137644,165.000977 164.68721,149.642777 164.996288,130.579766 L165.000977,130.000977 L165.000977,50.0009771 C165.000977,30.8643105 149.642777,15.3147437 130.579766,15.0056661 L130.000977,15.0009771 Z" id="Rectangle" fill="#979797" fill-rule="nonzero"></path>
        </g>
        <path d="M645.000119,792.5 C660.878305,792.5 675.253305,798.935907 685.658759,809.34136 C696.064212,819.746813 702.500119,834.121813 702.500119,850 L702.500119,850 L702.500119,1350 C702.500119,1365.87819 696.064212,1380.25319 685.658759,1390.65864 C675.253305,1401.06409 660.878305,1407.5 645.000119,1407.5 L645.000119,1407.5 L544.882469,1407.5 C523.924562,1407.5 503.423715,1401.37384 485.901901,1389.87515 L485.901901,1389.87515 L215.868252,1212.66557 C200.791342,1202.77135 183.151079,1197.5 165.117531,1197.5 L165.117531,1197.5 L65,1197.5 C49.1218134,1197.5 34.7468134,1191.06409 24.3413601,1180.65864 C13.9359067,1170.25319 7.5,1155.87819 7.5,1140 L7.5,1140 L7.5,1060 C7.5,1044.12181 13.9359067,1029.74681 24.3413601,1019.34136 C34.7468134,1008.93591 49.1218134,1002.5 65,1002.5 L65,1002.5 L165.117531,1002.5 C183.151079,1002.5 200.791342,997.228654 215.868252,987.334432 L215.868252,987.334432 L485.901901,810.12485 C503.423715,798.626159 523.924562,792.5 544.882469,792.5 L544.882469,792.5 Z" id="Path-9" stroke="url(#linearGradient-1)" stroke-width="15"></path>
        <path d="M145,1010 C172.614237,1010 195,1032.38576 195,1060 L195,1140 C195,1167.61424 172.614237,1190 145,1190 L65,1190 C37.3857625,1190 15,1167.61424 15,1140 L15,1060 C15,1032.38576 37.3857625,1010 65,1010 L145,1010 Z M145,1025 L65,1025 C45.8633334,1025 30.3137667,1040.3582 30.004689,1059.42121 L30,1060 L30,1140 C30,1159.13667 45.3582001,1174.68623 64.421211,1174.99531 L65,1175 L145,1175 C164.136667,1175 179.686233,1159.6418 179.995311,1140.57879 L180,1140 L180,1060 C180,1040.86333 164.6418,1025.31377 145.578789,1025.00469 L145,1025 Z" id="Rectangle" fill="#979797" fill-rule="nonzero"></path>
        <path d="M1644.52347,225 C1672.13771,225 1694.52347,247.385763 1694.52347,275 L1694.52347,355 C1694.52347,382.614237 1672.13771,405 1644.52347,405 L1564.52347,405 C1536.90924,405 1514.52347,382.614237 1514.52347,355 L1514.52347,275 C1514.52347,247.385763 1536.90924,225 1564.52347,225 L1644.52347,225 Z M1661.13447,253 L1636.08843,253 L1590.18447,332.911575 L1571.48219,302 L1547.52347,302 L1590.18447,377.10254 L1661.13447,253 Z" id="Combined-Shape" fill="#26B326"></path>
        <path d="M1644.52347,435 C1672.13771,435 1694.52347,457.385763 1694.52347,485 L1694.52347,565 C1694.52347,592.614237 1672.13771,615 1644.52347,615 L1564.52347,615 C1536.90924,615 1514.52347,592.614237 1514.52347,565 L1514.52347,485 C1514.52347,457.385763 1536.90924,435 1564.52347,435 L1644.52347,435 Z M1649.92475,459.79973 L1605.02347,504.70101 L1560.12219,459.79973 L1540.3232,479.598719 L1585.22448,524.5 L1540.3232,569.401281 L1560.12219,589.20027 L1605.02347,544.29899 L1649.92475,589.20027 L1669.72374,569.401281 L1624.82246,524.5 L1669.72374,479.598719 L1649.92475,459.79973 Z" id="Combined-Shape" fill="#C12525"></path>
        <path d="M1644.52347,1165 C1672.13771,1165 1694.52347,1187.38576 1694.52347,1215 L1694.52347,1295 C1694.52347,1322.61424 1672.13771,1345 1644.52347,1345 L1564.52347,1345 C1536.90924,1345 1514.52347,1322.61424 1514.52347,1295 L1514.52347,1215 C1514.52347,1187.38576 1536.90924,1165 1564.52347,1165 L1644.52347,1165 Z M1649.92475,1189.79973 L1605.02347,1234.70101 L1560.12219,1189.79973 L1540.3232,1209.59872 L1585.22448,1254.5 L1540.3232,1299.40128 L1560.12219,1319.20027 L1605.02347,1274.29899 L1649.92475,1319.20027 L1669.72374,1299.40128 L1624.82246,1254.5 L1669.72374,1209.59872 L1649.92475,1189.79973 Z" id="Combined-Shape" fill="#C12525"></path>
        <path d="M1644.52347,955 C1672.13771,955 1694.52347,977.385763 1694.52347,1005 L1694.52347,1085 C1694.52347,1112.61424 1672.13771,1135 1644.52347,1135 L1564.52347,1135 C1536.90924,1135 1514.52347,1112.61424 1514.52347,1085 L1514.52347,1005 C1514.52347,977.385763 1536.90924,955 1564.52347,955 L1644.52347,955 Z M1649.92475,979.79973 L1605.02347,1024.70101 L1560.12219,979.79973 L1540.3232,999.598719 L1585.22448,1044.5 L1540.3232,1089.40128 L1560.12219,1109.20027 L1605.02347,1064.29899 L1649.92475,1109.20027 L1669.72374,1089.40128 L1624.82246,1044.5 L1669.72374,999.598719 L1649.92475,979.79973 Z" id="Combined-Shape" fill="#C12525"></path>
        <path d="M2145,15 C2172.61424,15 2195,37.3857625 2195,65 L2195,145 C2195,172.614237 2172.61424,195 2145,195 L2065,195 C2037.38576,195 2015,172.614237 2015,145 L2015,65 C2015,37.3857625 2037.38576,15 2065,15 L2145,15 Z M2161.611,43 L2136.56495,43 L2090.661,122.911575 L2071.95872,92 L2048,92 L2090.661,167.10254 L2161.611,43 Z" id="Combined-Shape" fill="#26B326"></path>
        <path d="M1145,1060 C1172.61424,1060 1195,1082.38576 1195,1110 L1195,1190 C1195,1217.61424 1172.61424,1240 1145,1240 L1065,1240 C1037.38576,1240 1015,1217.61424 1015,1190 L1015,1110 C1015,1082.38576 1037.38576,1060 1065,1060 L1145,1060 Z M1161.611,1088 L1136.56495,1088 L1090.661,1167.91157 L1071.95872,1137 L1048,1137 L1090.661,1212.10254 L1161.611,1088 Z" id="Combined-Shape" fill="#26B326"></path>
        <path d="M1145,540 C1172.61424,540 1195,562.385763 1195,590 L1195,670 C1195,697.614237 1172.61424,720 1145,720 L1065,720 C1037.38576,720 1015,697.614237 1015,670 L1015,590 C1015,562.385763 1037.38576,540 1065,540 L1145,540 Z M1161.611,568 L1136.56495,568 L1090.661,647.911575 L1071.95872,617 L1048,617 L1090.661,692.10254 L1161.611,568 Z" id="Combined-Shape" fill="#26B326"></path>
        <path d="M645,800 C672.614237,800 695,822.385763 695,850 L695,930 C695,957.614237 672.614237,980 645,980 L565,980 C537.385763,980 515,957.614237 515,930 L515,850 C515,822.385763 537.385763,800 565,800 L645,800 Z M661.611,828 L636.564954,828 L590.661,907.911575 L571.958721,877 L548,877 L590.661,952.10254 L661.611,828 Z" id="Combined-Shape" fill="#26B326"></path>
        <path d="M645,1010 C672.614237,1010 695,1032.38576 695,1060 L695,1140 C695,1167.61424 672.614237,1190 645,1190 L565,1190 C537.385763,1190 515,1167.61424 515,1140 L515,1060 C515,1032.38576 537.385763,1010 565,1010 L645,1010 Z M661.611,1038 L636.564954,1038 L590.661,1117.91157 L571.958721,1087 L548,1087 L590.661,1162.10254 L661.611,1038 Z" id="Combined-Shape" fill="#26B326"></path>
        <path d="M1145,330 C1172.61424,330 1195,352.385763 1195,380 L1195,460 C1195,487.614237 1172.61424,510 1145,510 L1065,510 C1037.38576,510 1015,487.614237 1015,460 L1015,380 C1015,352.385763 1037.38576,330 1065,330 L1145,330 Z M1150.40128,354.79973 L1105.5,399.70101 L1060.59872,354.79973 L1040.79973,374.598719 L1085.70101,419.5 L1040.79973,464.401281 L1060.59872,484.20027 L1105.5,439.29899 L1150.40128,484.20027 L1170.20027,464.401281 L1125.29899,419.5 L1170.20027,374.598719 L1150.40128,354.79973 Z" id="Combined-Shape" fill="#C12525"></path>
        <path d="M2145,225 C2172.61424,225 2195,247.385763 2195,275 L2195,355 C2195,382.614237 2172.61424,405 2145,405 L2065,405 C2037.38576,405 2015,382.614237 2015,355 L2015,275 C2015,247.385763 2037.38576,225 2065,225 L2145,225 Z M2161.611,253 L2136.56495,253 L2090.661,332.911575 L2071.95872,302 L2048,302 L2090.661,377.10254 L2161.611,253 Z" id="Combined-Shape" fill="#26B326"></path>
        <path d="M1145,322.5 C1160.87819,322.5 1175.25319,328.935907 1185.65864,339.34136 C1196.06409,349.746813 1202.5,364.121813 1202.5,380 L1202.5,380 L1202.5,879.999113 C1202.49985,895.877208 1196.06393,910.252139 1185.65852,920.657605 C1175.2531,931.063071 1160.87821,937.499069 1145.00004,937.499307 L1145.00004,937.499307 L1022.76421,937.499959 C1017.9829,937.499984 1013.20879,937.870726 1008.4848,938.608852 L1008.4848,938.608852 L703.830151,986.211286 C698.339919,987.069137 692.791435,987.5 687.234587,987.5 L687.234587,987.5 L565,987.5 C549.121813,987.5 534.746813,981.064093 524.34136,970.65864 C513.935907,960.253187 507.5,945.878187 507.5,930 L507.5,930 L507.5,850 C507.5,834.121813 513.935907,819.746813 524.34136,809.34136 C534.746813,798.935907 549.121813,792.5 565,792.5 L565,792.5 L642.107515,792.5 C672.715713,792.5 701.342051,777.358784 718.568028,752.058044 L718.568028,752.058044 L979.032111,369.500112 C999.05149,340.096548 1032.31994,322.5 1067.89163,322.5 L1067.89163,322.5 Z" id="Path-2" stroke="url(#linearGradient-2)" stroke-width="15"></path>
        <path d="M1645,217.5 C1660.87819,217.5 1675.25319,223.935907 1685.65864,234.34136 C1696.06409,244.746813 1702.5,259.121813 1702.5,275 L1702.5,275 L1702.5,775 C1702.5,790.878187 1696.06409,805.253187 1685.65864,815.65864 C1675.25319,826.064093 1660.87819,832.5 1645,832.5 L1645,832.5 L1530.986,832.5 C1519.60095,832.5 1508.28818,830.691429 1497.47059,827.141897 L1497.47059,827.141897 L1207.85186,732.110461 C1198.5437,729.056212 1188.80946,727.5 1179.01302,727.5 L1179.01302,727.5 L1065,727.5 C1049.12181,727.5 1034.74681,721.064093 1024.34136,710.65864 C1013.93591,700.253187 1007.5,685.878187 1007.5,670 L1007.5,670 L1007.5,590 C1007.5,574.121813 1013.93591,559.746813 1024.34136,549.34136 C1034.74681,538.935907 1049.12181,532.5 1065,532.5 L1065,532.5 L1154.03915,532.5 C1178.31945,532.5 1201.62623,522.953318 1218.92961,505.920241 L1218.92961,505.920241 L1480.54675,248.38999 C1500.65609,228.594793 1527.74235,217.5 1555.95999,217.5 L1555.95999,217.5 Z" id="Path-2" stroke="url(#linearGradient-3)" stroke-width="15"></path>
        <path d="M2145,7.5 C2160.87819,7.5 2175.25319,13.9359067 2185.65864,24.3413601 C2196.06409,34.7468134 2202.5,49.1218134 2202.5,65 L2202.5,65 L2202.5,565 C2202.5,580.878187 2196.06409,595.253187 2185.65864,605.65864 C2175.25319,616.064093 2160.87819,622.5 2145,622.5 L2145,622.5 L2044.84441,622.5 C2023.91142,622.5 2003.43385,616.38839 1985.92505,604.915293 L1985.92505,604.915293 L1715.37614,427.631027 C1700.31043,417.758827 1682.69019,412.5 1664.67809,412.5 L1664.67809,412.5 L1564.52347,412.5 C1548.64529,412.5 1534.27029,406.064093 1523.86483,395.65864 C1513.45938,385.253187 1507.02347,370.878187 1507.02347,355 L1507.02347,355 L1507.02347,275 C1507.02347,259.121813 1513.45938,244.746813 1523.86483,234.34136 C1534.27029,223.935907 1548.64529,217.5 1564.52347,217.5 L1564.52347,217.5 L1664.67809,217.5 C1682.69019,217.5 1700.31043,212.241173 1715.37614,202.368973 L1715.37614,202.368973 L1985.92505,25.0847066 C2003.43385,13.6116102 2023.91142,7.5 2044.84441,7.5 L2044.84441,7.5 Z" id="Path-2" stroke="url(#linearGradient-4)" stroke-width="15"></path>
        <path d="M687.234703,1002.5 C692.791553,1002.5 698.340039,1002.93086 703.830273,1003.78872 L703.830273,1003.78872 L1008.48453,1051.39111 C1013.20868,1052.12926 1017.98296,1052.5 1022.76444,1052.5 L1022.76444,1052.5 L1145,1052.5 C1160.87819,1052.5 1175.25319,1058.93591 1185.65864,1069.34136 C1196.06409,1079.74681 1202.5,1094.12181 1202.5,1110 L1202.5,1110 L1202.5,1610 C1202.5,1625.87819 1196.06409,1640.25319 1185.65864,1650.65864 C1175.25319,1661.06409 1160.87819,1667.5 1145,1667.5 L1145,1667.5 L1067.89163,1667.5 C1032.31994,1667.5 999.05149,1649.90345 979.032111,1620.49989 L979.032111,1620.49989 L718.568028,1237.94196 C701.342051,1212.64122 672.715713,1197.5 642.107515,1197.5 L642.107515,1197.5 L564.999023,1197.5 C549.120836,1197.5 534.745836,1191.06409 524.340383,1180.65864 C513.93493,1170.25319 507.499023,1155.87819 507.499023,1140 L507.499023,1140 L507.499023,1060 C507.499023,1044.12181 513.93493,1029.74681 524.340383,1019.34136 C534.745836,1008.93591 549.120836,1002.5 564.999023,1002.5 L564.999023,1002.5 Z" id="Path-6" stroke="url(#linearGradient-5)" stroke-width="15"></path>
        <path d="M1645,947.5 C1660.87819,947.5 1675.25319,953.935907 1685.65864,964.34136 C1696.06409,974.746813 1702.5,989.121813 1702.5,1005 L1702.5,1005 L1702.5,1505 C1702.5,1520.87819 1696.06409,1535.25319 1685.65864,1545.65864 C1675.25319,1556.06409 1660.87819,1562.5 1645,1562.5 L1645,1562.5 L1555.95999,1562.5 C1527.74235,1562.5 1500.65609,1551.40521 1480.54675,1531.61001 L1480.54675,1531.61001 L1218.92961,1274.07976 C1201.62623,1257.04668 1178.31945,1247.5 1154.03915,1247.5 L1154.03915,1247.5 L1064.99902,1247.5 C1049.12084,1247.5 1034.74584,1241.06409 1024.34038,1230.65864 C1013.93493,1220.25319 1007.49902,1205.87819 1007.49902,1190 L1007.49902,1190 L1007.49902,1110 C1007.49902,1094.12181 1013.93493,1079.74681 1024.34038,1069.34136 C1034.74584,1058.93591 1049.12084,1052.5 1064.99902,1052.5 L1064.99902,1052.5 L1179.01313,1052.5 C1188.80957,1052.5 1198.54382,1050.94379 1207.85198,1047.88954 L1207.85198,1047.88954 L1497.47059,952.858107 C1508.28818,949.308573 1519.60096,947.5 1530.98601,947.5 L1530.98601,947.5 L1645,947.5 Z" id="Path-6" stroke="url(#linearGradient-6)" stroke-width="15"></path>
    </g>
</svg>